<mxfile host="65bd71144e">
    <diagram id="7GuAjjzs_9jMdIzR8Z1F" name="Page-1">
        <mxGraphModel dx="328" dy="591" grid="1" gridSize="10" guides="1" tooltips="1" connect="1" arrows="1" fold="1" page="1" pageScale="1" pageWidth="827" pageHeight="1169" background="none" math="0" shadow="1">
            <root>
                <mxCell id="0"/>
                <mxCell id="1" parent="0"/>
                <mxCell id="3" value="Which is the goal?" style="whiteSpace=wrap;html=1;rounded=1;strokeWidth=4;strokeColor=#FFD012;" parent="1" vertex="1">
                    <mxGeometry x="80" y="40" width="185" height="60" as="geometry"/>
                </mxCell>
                <mxCell id="4" value="Which methods are used nowadays?" style="whiteSpace=wrap;html=1;rounded=1;strokeWidth=4;strokeColor=#FFD012;" parent="1" vertex="1">
                    <mxGeometry x="80" y="180" width="185" height="60" as="geometry"/>
                </mxCell>
                <mxCell id="5" value="VELOCITY MEASURAMENT VECTOR" style="whiteSpace=wrap;html=1;rounded=1;strokeColor=#CC00CC;strokeWidth=2;" parent="1" vertex="1">
                    <mxGeometry x="340" y="40" width="190" height="60" as="geometry"/>
                </mxCell>
                <mxCell id="8" value="Encoders on wheels" style="whiteSpace=wrap;html=1;rounded=1;strokeColor=#CC00CC;strokeWidth=2;" parent="1" vertex="1">
                    <mxGeometry x="340" y="330" width="190" height="30" as="geometry"/>
                </mxCell>
                <mxCell id="11" value="GPS (with RTK)" style="whiteSpace=wrap;html=1;rounded=1;strokeColor=#CC00CC;strokeWidth=2;" parent="1" vertex="1">
                    <mxGeometry x="340" y="410" width="190" height="30" as="geometry"/>
                </mxCell>
                <mxCell id="12" value="EKF" style="whiteSpace=wrap;html=1;rounded=1;strokeColor=#CC00CC;strokeWidth=2;" parent="1" vertex="1">
                    <mxGeometry x="340" y="175" width="190" height="30" as="geometry"/>
                </mxCell>
                <mxCell id="13" value="End-to-end neural network" style="whiteSpace=wrap;html=1;rounded=1;strokeColor=#CC00CC;strokeWidth=2;" parent="1" vertex="1">
                    <mxGeometry x="340" y="255" width="190" height="30" as="geometry"/>
                </mxCell>
                <mxCell id="14" value="Direct measurament" style="whiteSpace=wrap;html=1;rounded=1;strokeColor=#CC00CC;strokeWidth=2;" parent="1" vertex="1">
                    <mxGeometry x="340" y="135" width="190" height="30" as="geometry"/>
                </mxCell>
                <mxCell id="15" value="Which sensors are used nowadays?" style="whiteSpace=wrap;html=1;rounded=1;strokeWidth=4;strokeColor=#FFD012;" parent="1" vertex="1">
                    <mxGeometry x="80" y="360" width="185" height="60" as="geometry"/>
                </mxCell>
                <mxCell id="16" value="FFT filtering and analysis" style="whiteSpace=wrap;html=1;rounded=1;strokeColor=#CC00CC;strokeWidth=2;" parent="1" vertex="1">
                    <mxGeometry x="340" y="215" width="190" height="30" as="geometry"/>
                </mxCell>
                <mxCell id="17" value="Laser" style="whiteSpace=wrap;html=1;rounded=1;strokeColor=#CC00CC;strokeWidth=2;" parent="1" vertex="1">
                    <mxGeometry x="550" y="450" width="190" height="30" as="geometry"/>
                </mxCell>
                <mxCell id="18" value="IMU" style="whiteSpace=wrap;html=1;rounded=1;strokeColor=#CC00CC;strokeWidth=2;" parent="1" vertex="1">
                    <mxGeometry x="340" y="450" width="190" height="30" as="geometry"/>
                </mxCell>
                <mxCell id="19" value="Motor current" style="whiteSpace=wrap;html=1;rounded=1;strokeColor=#CC00CC;strokeWidth=2;" parent="1" vertex="1">
                    <mxGeometry x="550" y="330" width="190" height="30" as="geometry"/>
                </mxCell>
                <mxCell id="20" value="Usually sensor fusion techniques" style="whiteSpace=wrap;html=1;rounded=1;" parent="1" vertex="1">
                    <mxGeometry x="80" y="440" width="190" height="20" as="geometry"/>
                </mxCell>
                <mxCell id="21" value="Camera" style="whiteSpace=wrap;html=1;rounded=1;strokeColor=#CC00CC;strokeWidth=2;" parent="1" vertex="1">
                    <mxGeometry x="550" y="370" width="190" height="30" as="geometry"/>
                </mxCell>
                <mxCell id="22" value="Lidar" style="whiteSpace=wrap;html=1;rounded=1;strokeColor=#CC00CC;strokeWidth=2;" parent="1" vertex="1">
                    <mxGeometry x="550" y="410" width="190" height="30" as="geometry"/>
                </mxCell>
                <mxCell id="23" value="Encoder on steer" style="whiteSpace=wrap;html=1;rounded=1;strokeColor=#CC00CC;strokeWidth=2;" parent="1" vertex="1">
                    <mxGeometry x="340" y="370" width="190" height="30" as="geometry"/>
                </mxCell>
                <mxCell id="24" value="Which are the requirements?" style="whiteSpace=wrap;html=1;rounded=1;strokeWidth=4;strokeColor=#FFD012;" parent="1" vertex="1">
                    <mxGeometry x="80" y="560" width="185" height="60" as="geometry"/>
                </mxCell>
                <mxCell id="25" value="Use a QFD specifying parameters" style="whiteSpace=wrap;html=1;rounded=1;" parent="1" vertex="1">
                    <mxGeometry x="80" y="630" width="190" height="20" as="geometry"/>
                </mxCell>
                <mxCell id="27" value="In the QFD competitors are techs" style="whiteSpace=wrap;html=1;rounded=1;" parent="1" vertex="1">
                    <mxGeometry x="80" y="660" width="190" height="20" as="geometry"/>
                </mxCell>
                <mxCell id="28" value="No slip affection" style="whiteSpace=wrap;html=1;rounded=1;" parent="1" vertex="1">
                    <mxGeometry x="340" y="530" width="190" height="30" as="geometry"/>
                </mxCell>
                <mxCell id="29" value="Reliability" style="whiteSpace=wrap;html=1;rounded=1;" parent="1" vertex="1">
                    <mxGeometry x="340" y="610" width="190" height="30" as="geometry"/>
                </mxCell>
                <mxCell id="30" value="Mounted on-board" style="whiteSpace=wrap;html=1;rounded=1;" parent="1" vertex="1">
                    <mxGeometry x="550" y="650" width="190" height="30" as="geometry"/>
                </mxCell>
                <mxCell id="31" value="Safe" style="whiteSpace=wrap;html=1;rounded=1;" parent="1" vertex="1">
                    <mxGeometry x="340" y="650" width="190" height="30" as="geometry"/>
                </mxCell>
                <mxCell id="32" value="Complexity" style="whiteSpace=wrap;html=1;rounded=1;" parent="1" vertex="1">
                    <mxGeometry x="550" y="530" width="190" height="30" as="geometry"/>
                </mxCell>
                <mxCell id="33" value="Costs" style="whiteSpace=wrap;html=1;rounded=1;" parent="1" vertex="1">
                    <mxGeometry x="550" y="570" width="190" height="30" as="geometry"/>
                </mxCell>
                <mxCell id="34" value="Robustness" style="whiteSpace=wrap;html=1;rounded=1;" parent="1" vertex="1">
                    <mxGeometry x="550" y="610" width="190" height="30" as="geometry"/>
                </mxCell>
                <mxCell id="35" value="Fast sampling" style="whiteSpace=wrap;html=1;rounded=1;" parent="1" vertex="1">
                    <mxGeometry x="340" y="570" width="190" height="30" as="geometry"/>
                </mxCell>
                <mxCell id="36" value="Why a contact-less velocity sensor mounted on-board?" style="whiteSpace=wrap;html=1;rounded=1;strokeWidth=4;strokeColor=#FFD012;" parent="1" vertex="1">
                    <mxGeometry x="80" y="770" width="185" height="60" as="geometry"/>
                </mxCell>
                <mxCell id="38" value="No slip affected" style="whiteSpace=wrap;html=1;rounded=1;strokeColor=#00CC00;strokeWidth=2;" parent="1" vertex="1">
                    <mxGeometry x="340" y="730" width="190" height="30" as="geometry"/>
                </mxCell>
                <mxCell id="39" value="High sampling rate" style="whiteSpace=wrap;html=1;rounded=1;strokeColor=#00CC00;strokeWidth=2;" parent="1" vertex="1">
                    <mxGeometry x="340" y="810" width="190" height="30" as="geometry"/>
                </mxCell>
                <mxCell id="41" value="Robust" style="whiteSpace=wrap;html=1;rounded=1;strokeColor=#00CC00;strokeWidth=2;" parent="1" vertex="1">
                    <mxGeometry x="340" y="850" width="190" height="30" as="geometry"/>
                </mxCell>
                <mxCell id="45" value="All system on-board" style="whiteSpace=wrap;html=1;rounded=1;strokeColor=#00CC00;strokeWidth=2;" parent="1" vertex="1">
                    <mxGeometry x="340" y="770" width="190" height="30" as="geometry"/>
                </mxCell>
                <mxCell id="47" value="High costs" style="whiteSpace=wrap;html=1;rounded=1;strokeWidth=2;strokeColor=#AB0000;" parent="1" vertex="1">
                    <mxGeometry x="550" y="730" width="190" height="30" as="geometry"/>
                </mxCell>
                <mxCell id="48" value="Environment conditions" style="whiteSpace=wrap;html=1;rounded=1;strokeWidth=2;strokeColor=#AB0000;" parent="1" vertex="1">
                    <mxGeometry x="550" y="810" width="190" height="30" as="geometry"/>
                </mxCell>
                <mxCell id="49" value="Camera settings" style="whiteSpace=wrap;html=1;rounded=1;strokeWidth=2;strokeColor=#AB0000;" parent="1" vertex="1">
                    <mxGeometry x="550" y="850" width="190" height="30" as="geometry"/>
                </mxCell>
                <mxCell id="50" value="Vibration issues" style="whiteSpace=wrap;html=1;rounded=1;strokeWidth=2;strokeColor=#AB0000;" parent="1" vertex="1">
                    <mxGeometry x="550" y="770" width="190" height="30" as="geometry"/>
                </mxCell>
                <mxCell id="51" value="The detailed goals to improve the contactl-ess velocity measurament" style="whiteSpace=wrap;html=1;rounded=1;strokeWidth=4;strokeColor=#FFD012;" parent="1" vertex="1">
                    <mxGeometry x="80" y="990" width="185" height="60" as="geometry"/>
                </mxCell>
                <mxCell id="52" value="Reduce costs" style="whiteSpace=wrap;html=1;rounded=1;strokeWidth=2;" parent="1" vertex="1">
                    <mxGeometry x="340" y="925" width="190" height="30" as="geometry"/>
                </mxCell>
                <mxCell id="53" value="Develop the system" style="whiteSpace=wrap;html=1;rounded=1;strokeWidth=2;" parent="1" vertex="1">
                    <mxGeometry x="340" y="1005" width="190" height="30" as="geometry"/>
                </mxCell>
                <mxCell id="55" value="Low budget sensors" style="whiteSpace=wrap;html=1;rounded=1;" parent="1" vertex="1">
                    <mxGeometry x="550" y="925" width="190" height="30" as="geometry"/>
                </mxCell>
                <mxCell id="56" value="Hardware" style="whiteSpace=wrap;html=1;rounded=1;" parent="1" vertex="1">
                    <mxGeometry x="550" y="960" width="190" height="30" as="geometry"/>
                </mxCell>
                <mxCell id="57" value="Software" style="whiteSpace=wrap;html=1;rounded=1;" parent="1" vertex="1">
                    <mxGeometry x="550" y="1005" width="190" height="30" as="geometry"/>
                </mxCell>
                <mxCell id="fbQfAOmNvaya13AY3hEM-57" value="Auto camera params setting" style="whiteSpace=wrap;html=1;rounded=1;strokeWidth=2;" parent="1" vertex="1">
                    <mxGeometry x="340" y="1090" width="190" height="30" as="geometry"/>
                </mxCell>
                <mxCell id="fbQfAOmNvaya13AY3hEM-59" value="Environment conditions" style="whiteSpace=wrap;html=1;rounded=1;" parent="1" vertex="1">
                    <mxGeometry x="550" y="1050" width="190" height="30" as="geometry"/>
                </mxCell>
                <mxCell id="fbQfAOmNvaya13AY3hEM-60" value="Velocity" style="whiteSpace=wrap;html=1;rounded=1;" parent="1" vertex="1">
                    <mxGeometry x="550" y="1090" width="190" height="30" as="geometry"/>
                </mxCell>
                <mxCell id="fbQfAOmNvaya13AY3hEM-79" value="" style="endArrow=none;dashed=1;html=1;exitX=1;exitY=0.5;exitDx=0;exitDy=0;entryX=0;entryY=0.5;entryDx=0;entryDy=0;strokeColor=#000000;" parent="1" source="51" target="52" edge="1">
                    <mxGeometry width="50" height="50" relative="1" as="geometry">
                        <mxPoint x="740" y="840" as="sourcePoint"/>
                        <mxPoint x="790" y="790" as="targetPoint"/>
                    </mxGeometry>
                </mxCell>
                <mxCell id="fbQfAOmNvaya13AY3hEM-80" value="" style="endArrow=none;dashed=1;html=1;exitX=1;exitY=0.5;exitDx=0;exitDy=0;entryX=0;entryY=0.5;entryDx=0;entryDy=0;strokeColor=#000000;" parent="1" source="51" target="53" edge="1">
                    <mxGeometry width="50" height="50" relative="1" as="geometry">
                        <mxPoint x="740" y="840" as="sourcePoint"/>
                        <mxPoint x="790" y="790" as="targetPoint"/>
                    </mxGeometry>
                </mxCell>
                <mxCell id="fbQfAOmNvaya13AY3hEM-81" value="" style="endArrow=none;dashed=1;html=1;exitX=1;exitY=0.5;exitDx=0;exitDy=0;entryX=0;entryY=0.5;entryDx=0;entryDy=0;strokeColor=#000000;" parent="1" source="51" target="fbQfAOmNvaya13AY3hEM-57" edge="1">
                    <mxGeometry width="50" height="50" relative="1" as="geometry">
                        <mxPoint x="740" y="840" as="sourcePoint"/>
                        <mxPoint x="340" y="1090" as="targetPoint"/>
                    </mxGeometry>
                </mxCell>
                <mxCell id="fbQfAOmNvaya13AY3hEM-85" value="" style="endArrow=none;dashed=1;html=1;exitX=1;exitY=0.5;exitDx=0;exitDy=0;entryX=0;entryY=0.5;entryDx=0;entryDy=0;strokeColor=#000000;" parent="1" source="52" target="55" edge="1">
                    <mxGeometry width="50" height="50" relative="1" as="geometry">
                        <mxPoint x="740" y="840" as="sourcePoint"/>
                        <mxPoint x="790" y="790" as="targetPoint"/>
                    </mxGeometry>
                </mxCell>
                <mxCell id="fbQfAOmNvaya13AY3hEM-86" value="" style="endArrow=none;dashed=1;html=1;exitX=1;exitY=0.5;exitDx=0;exitDy=0;entryX=0;entryY=0.5;entryDx=0;entryDy=0;strokeColor=#000000;" parent="1" source="52" target="56" edge="1">
                    <mxGeometry width="50" height="50" relative="1" as="geometry">
                        <mxPoint x="740" y="890" as="sourcePoint"/>
                        <mxPoint x="790" y="840" as="targetPoint"/>
                    </mxGeometry>
                </mxCell>
                <mxCell id="fbQfAOmNvaya13AY3hEM-87" value="" style="endArrow=none;dashed=1;html=1;exitX=1;exitY=0.5;exitDx=0;exitDy=0;entryX=0;entryY=0.5;entryDx=0;entryDy=0;strokeColor=#000000;" parent="1" source="53" target="57" edge="1">
                    <mxGeometry width="50" height="50" relative="1" as="geometry">
                        <mxPoint x="740" y="890" as="sourcePoint"/>
                        <mxPoint x="790" y="840" as="targetPoint"/>
                    </mxGeometry>
                </mxCell>
                <mxCell id="fbQfAOmNvaya13AY3hEM-88" value="" style="endArrow=none;dashed=1;html=1;exitX=1;exitY=0.5;exitDx=0;exitDy=0;entryX=0;entryY=0.5;entryDx=0;entryDy=0;strokeColor=#000000;" parent="1" source="fbQfAOmNvaya13AY3hEM-57" target="fbQfAOmNvaya13AY3hEM-60" edge="1">
                    <mxGeometry width="50" height="50" relative="1" as="geometry">
                        <mxPoint x="740" y="890" as="sourcePoint"/>
                        <mxPoint x="790" y="840" as="targetPoint"/>
                    </mxGeometry>
                </mxCell>
                <mxCell id="fbQfAOmNvaya13AY3hEM-89" value="" style="endArrow=none;dashed=1;html=1;exitX=1;exitY=0.5;exitDx=0;exitDy=0;entryX=0;entryY=0.5;entryDx=0;entryDy=0;strokeColor=#000000;" parent="1" source="fbQfAOmNvaya13AY3hEM-57" target="fbQfAOmNvaya13AY3hEM-59" edge="1">
                    <mxGeometry width="50" height="50" relative="1" as="geometry">
                        <mxPoint x="740" y="890" as="sourcePoint"/>
                        <mxPoint x="790" y="840" as="targetPoint"/>
                    </mxGeometry>
                </mxCell>
                <mxCell id="fbQfAOmNvaya13AY3hEM-90" value="" style="shape=curlyBracket;whiteSpace=wrap;html=1;rounded=1;strokeWidth=1;dashed=1;strokeColor=#000000;" parent="1" vertex="1">
                    <mxGeometry x="300" y="740" width="20" height="130" as="geometry"/>
                </mxCell>
                <mxCell id="fbQfAOmNvaya13AY3hEM-91" value="" style="shape=curlyBracket;whiteSpace=wrap;html=1;rounded=1;strokeWidth=1;dashed=1;strokeColor=#000000;" parent="1" vertex="1">
                    <mxGeometry x="300" y="540" width="20" height="130" as="geometry"/>
                </mxCell>
                <mxCell id="fbQfAOmNvaya13AY3hEM-92" value="" style="shape=curlyBracket;whiteSpace=wrap;html=1;rounded=1;strokeWidth=1;dashed=1;strokeColor=#000000;" parent="1" vertex="1">
                    <mxGeometry x="300" y="340" width="20" height="130" as="geometry"/>
                </mxCell>
                <mxCell id="fbQfAOmNvaya13AY3hEM-93" value="" style="shape=curlyBracket;whiteSpace=wrap;html=1;rounded=1;strokeWidth=1;dashed=1;strokeColor=#000000;" parent="1" vertex="1">
                    <mxGeometry x="300" y="145" width="20" height="130" as="geometry"/>
                </mxCell>
                <mxCell id="fbQfAOmNvaya13AY3hEM-94" value="" style="shape=curlyBracket;whiteSpace=wrap;html=1;rounded=1;strokeWidth=1;dashed=1;strokeColor=#000000;" parent="1" vertex="1">
                    <mxGeometry x="300" y="40" width="20" height="57.5" as="geometry"/>
                </mxCell>
                <mxCell id="60" value="" style="line;strokeWidth=1;direction=south;html=1;dashed=1;strokeColor=#000000;" parent="1" vertex="1">
                    <mxGeometry x="167.5" y="860" width="10" height="110" as="geometry"/>
                </mxCell>
                <mxCell id="61" value="" style="line;strokeWidth=1;direction=south;html=1;dashed=1;strokeColor=#000000;" parent="1" vertex="1">
                    <mxGeometry x="167.5" y="696" width="10" height="60" as="geometry"/>
                </mxCell>
                <mxCell id="62" value="" style="line;strokeWidth=1;direction=south;html=1;dashed=1;strokeColor=#000000;" parent="1" vertex="1">
                    <mxGeometry x="167" y="470" width="10" height="80" as="geometry"/>
                </mxCell>
                <mxCell id="63" value="" style="line;strokeWidth=1;direction=south;html=1;dashed=1;strokeColor=#000000;" parent="1" vertex="1">
                    <mxGeometry x="167" y="255" width="10" height="95" as="geometry"/>
                </mxCell>
                <mxCell id="64" value="" style="line;strokeWidth=1;direction=south;html=1;dashed=1;strokeColor=#000000;" parent="1" vertex="1">
                    <mxGeometry x="167" y="115" width="10" height="50" as="geometry"/>
                </mxCell>
                <mxCell id="66" value="Develop the system" style="whiteSpace=wrap;html=1;rounded=1;strokeWidth=4;strokeColor=#FFD012;" parent="1" vertex="1">
                    <mxGeometry x="79.5" y="1390" width="185" height="60" as="geometry"/>
                </mxCell>
                <mxCell id="67" value="Software" style="whiteSpace=wrap;html=1;rounded=1;strokeWidth=3;strokeColor=#CC00CC;" parent="1" vertex="1">
                    <mxGeometry x="310" y="1280" width="70" height="30" as="geometry"/>
                </mxCell>
                <mxCell id="68" value="Hardware" style="whiteSpace=wrap;html=1;rounded=1;strokeWidth=3;strokeColor=#CC00CC;" parent="1" vertex="1">
                    <mxGeometry x="310" y="1510" width="70" height="30" as="geometry"/>
                </mxCell>
                <mxCell id="69" value="Sample image" style="whiteSpace=wrap;html=1;rounded=1;strokeWidth=2;" parent="1" vertex="1">
                    <mxGeometry x="423.5" y="1195" width="190" height="30" as="geometry"/>
                </mxCell>
                <mxCell id="70" value="FFT" style="whiteSpace=wrap;html=1;rounded=1;strokeWidth=2;" parent="1" vertex="1">
                    <mxGeometry x="423.5" y="1235" width="190" height="30" as="geometry"/>
                </mxCell>
                <mxCell id="71" value="Image" style="whiteSpace=wrap;html=1;rounded=1;strokeWidth=2;" parent="1" vertex="1">
                    <mxGeometry x="424" y="1450" width="190" height="30" as="geometry"/>
                </mxCell>
                <mxCell id="75" value="" style="endArrow=none;dashed=1;html=1;exitX=1;exitY=0.5;exitDx=0;exitDy=0;entryX=0;entryY=0.5;entryDx=0;entryDy=0;strokeColor=#000000;" parent="1" source="66" target="67" edge="1">
                    <mxGeometry width="50" height="50" relative="1" as="geometry">
                        <mxPoint x="740" y="1125" as="sourcePoint"/>
                        <mxPoint x="790" y="1075" as="targetPoint"/>
                    </mxGeometry>
                </mxCell>
                <mxCell id="76" value="" style="endArrow=none;dashed=1;html=1;exitX=1;exitY=0.5;exitDx=0;exitDy=0;entryX=0;entryY=0.5;entryDx=0;entryDy=0;strokeColor=#000000;" parent="1" source="66" target="68" edge="1">
                    <mxGeometry width="50" height="50" relative="1" as="geometry">
                        <mxPoint x="740" y="1125" as="sourcePoint"/>
                        <mxPoint x="790" y="1075" as="targetPoint"/>
                    </mxGeometry>
                </mxCell>
                <mxCell id="83" value="Filtering/Noise removal" style="whiteSpace=wrap;html=1;rounded=1;strokeWidth=2;" parent="1" vertex="1">
                    <mxGeometry x="423.5" y="1275" width="190" height="30" as="geometry"/>
                </mxCell>
                <mxCell id="84" value="Velocity direction" style="whiteSpace=wrap;html=1;rounded=1;strokeWidth=2;" parent="1" vertex="1">
                    <mxGeometry x="423.5" y="1315" width="190" height="30" as="geometry"/>
                </mxCell>
                <mxCell id="85" value="Velocity amplitude" style="whiteSpace=wrap;html=1;rounded=1;strokeWidth=2;" parent="1" vertex="1">
                    <mxGeometry x="423.5" y="1360" width="190" height="30" as="geometry"/>
                </mxCell>
                <mxCell id="86" value="LP/HP/BP/Butterworth/&lt;br&gt;/Subsampling/&lt;br&gt;/Sobel/Scharr/Roberts/Prewitt/&lt;br&gt;/Laplace" style="whiteSpace=wrap;html=1;rounded=1;" parent="1" vertex="1">
                    <mxGeometry x="630" y="1215" width="190" height="90" as="geometry"/>
                </mxCell>
                <mxCell id="87" value="" style="endArrow=none;dashed=1;html=1;exitX=1;exitY=0.5;exitDx=0;exitDy=0;entryX=0;entryY=0.5;entryDx=0;entryDy=0;strokeColor=#000000;" parent="1" source="83" target="86" edge="1">
                    <mxGeometry width="50" height="50" relative="1" as="geometry">
                        <mxPoint x="284.5" y="1435" as="sourcePoint"/>
                        <mxPoint x="330" y="1305" as="targetPoint"/>
                    </mxGeometry>
                </mxCell>
                <mxCell id="88" value="Spectrum phase" style="whiteSpace=wrap;html=1;rounded=1;" parent="1" vertex="1">
                    <mxGeometry x="630" y="1315" width="190" height="30" as="geometry"/>
                </mxCell>
                <mxCell id="89" value="" style="endArrow=none;dashed=1;html=1;exitX=1;exitY=0.5;exitDx=0;exitDy=0;entryX=0;entryY=0.5;entryDx=0;entryDy=0;strokeColor=#000000;" parent="1" source="84" target="88" edge="1">
                    <mxGeometry width="50" height="50" relative="1" as="geometry">
                        <mxPoint x="284.5" y="1435" as="sourcePoint"/>
                        <mxPoint x="330" y="1305" as="targetPoint"/>
                    </mxGeometry>
                </mxCell>
                <mxCell id="90" value="Spectrum amplitude" style="whiteSpace=wrap;html=1;rounded=1;" parent="1" vertex="1">
                    <mxGeometry x="630" y="1360" width="190" height="30" as="geometry"/>
                </mxCell>
                <mxCell id="91" value="" style="endArrow=none;dashed=1;html=1;exitX=0;exitY=0.5;exitDx=0;exitDy=0;entryX=1;entryY=0.5;entryDx=0;entryDy=0;strokeColor=#000000;" parent="1" source="90" target="85" edge="1">
                    <mxGeometry width="50" height="50" relative="1" as="geometry">
                        <mxPoint x="514.5" y="1575" as="sourcePoint"/>
                        <mxPoint x="560" y="1445" as="targetPoint"/>
                    </mxGeometry>
                </mxCell>
                <mxCell id="92" value="" style="shape=curlyBracket;whiteSpace=wrap;html=1;rounded=1;strokeWidth=1;dashed=1;strokeColor=#000000;" parent="1" vertex="1">
                    <mxGeometry x="390" y="1210" width="20" height="170" as="geometry"/>
                </mxCell>
                <mxCell id="93" value="Distance from ground" style="whiteSpace=wrap;html=1;rounded=1;strokeWidth=2;" parent="1" vertex="1">
                    <mxGeometry x="424" y="1490" width="190" height="30" as="geometry"/>
                </mxCell>
                <mxCell id="94" value="Camera&lt;span style=&quot;color: rgba(0 , 0 , 0 , 0) ; font-family: monospace ; font-size: 0px&quot;&gt;%3CmxGraphModel%3E%3Croot%3E%3CmxCell%20id%3D%220%22%2F%3E%3CmxCell%20id%3D%221%22%20parent%3D%220%22%2F%3E%3CmxCell%20id%3D%222%22%20value%3D%22Image%22%20style%3D%22whiteSpace%3Dwrap%3Bhtml%3D1%3Brounded%3D1%3B%22%20vertex%3D%221%22%20parent%3D%221%22%3E%3CmxGeometry%20x%3D%22414%22%20y%3D%221480%22%20width%3D%22190%22%20height%3D%2230%22%20as%3D%22geometry%22%2F%3E%3C%2FmxCell%3E%3C%2Froot%3E%3C%2FmxGraphModel%3E&lt;/span&gt;" style="whiteSpace=wrap;html=1;rounded=1;" parent="1" vertex="1">
                    <mxGeometry x="630" y="1450" width="190" height="30" as="geometry"/>
                </mxCell>
                <mxCell id="95" value="Emitter/Receiver or Fixed" style="whiteSpace=wrap;html=1;rounded=1;" parent="1" vertex="1">
                    <mxGeometry x="630" y="1490" width="190" height="30" as="geometry"/>
                </mxCell>
                <mxCell id="96" value="Geometry constraints" style="whiteSpace=wrap;html=1;rounded=1;strokeWidth=2;" parent="1" vertex="1">
                    <mxGeometry x="424" y="1530" width="190" height="30" as="geometry"/>
                </mxCell>
                <mxCell id="97" value="" style="endArrow=none;dashed=1;html=1;exitX=0;exitY=0.5;exitDx=0;exitDy=0;entryX=1;entryY=0.5;entryDx=0;entryDy=0;strokeColor=#000000;" parent="1" source="94" target="71" edge="1">
                    <mxGeometry width="50" height="50" relative="1" as="geometry">
                        <mxPoint x="284.5" y="1400" as="sourcePoint"/>
                        <mxPoint x="320" y="1505" as="targetPoint"/>
                    </mxGeometry>
                </mxCell>
                <mxCell id="99" value="" style="endArrow=none;dashed=1;html=1;exitX=0;exitY=0.5;exitDx=0;exitDy=0;entryX=1;entryY=0.5;entryDx=0;entryDy=0;strokeColor=#000000;" parent="1" source="95" target="93" edge="1">
                    <mxGeometry width="50" height="50" relative="1" as="geometry">
                        <mxPoint x="640" y="1475" as="sourcePoint"/>
                        <mxPoint x="624" y="1475" as="targetPoint"/>
                    </mxGeometry>
                </mxCell>
                <mxCell id="100" value="Possible boards specifics" style="whiteSpace=wrap;html=1;rounded=1;strokeWidth=2;" parent="1" vertex="1">
                    <mxGeometry x="424" y="1570" width="190" height="30" as="geometry"/>
                </mxCell>
                <mxCell id="101" value="" style="shape=curlyBracket;whiteSpace=wrap;html=1;rounded=1;strokeWidth=1;dashed=1;strokeColor=#000000;" parent="1" vertex="1">
                    <mxGeometry x="390" y="1460" width="20" height="130" as="geometry"/>
                </mxCell>
                <mxCell id="102" value="" style="shape=curlyBracket;whiteSpace=wrap;html=1;rounded=1;strokeWidth=1;dashed=1;strokeColor=#000000;size=0.5;rotation=-90;" parent="1" vertex="1">
                    <mxGeometry x="710" y="1480" width="20" height="130" as="geometry"/>
                </mxCell>
                <mxCell id="103" value="Reduce these costs" style="whiteSpace=wrap;html=1;rounded=1;" parent="1" vertex="1">
                    <mxGeometry x="630" y="1560" width="190" height="20" as="geometry"/>
                </mxCell>
                <mxCell id="104" value="Auto camera params setting" style="whiteSpace=wrap;html=1;rounded=1;strokeWidth=4;strokeColor=#FFD012;" parent="1" vertex="1">
                    <mxGeometry x="80" y="1681" width="185" height="60" as="geometry"/>
                </mxCell>
                <mxCell id="109" value="ISO" style="whiteSpace=wrap;html=1;rounded=1;strokeWidth=2;" parent="1" vertex="1">
                    <mxGeometry x="630" y="1656" width="190" height="30" as="geometry"/>
                </mxCell>
                <mxCell id="122" value="Aperture" style="whiteSpace=wrap;html=1;rounded=1;strokeWidth=2;" parent="1" vertex="1">
                    <mxGeometry x="630" y="1696" width="190" height="30" as="geometry"/>
                </mxCell>
                <mxCell id="125" value="Shutter speed" style="whiteSpace=wrap;html=1;rounded=1;strokeWidth=2;" parent="1" vertex="1">
                    <mxGeometry x="630" y="1736" width="190" height="30" as="geometry"/>
                </mxCell>
                <mxCell id="132" value="Kalman on velocity&lt;br&gt;or&lt;br&gt;neural network" style="whiteSpace=wrap;html=1;rounded=1;strokeWidth=3;strokeColor=#00CC00;" parent="1" vertex="1">
                    <mxGeometry x="370" y="1681" width="190" height="60" as="geometry"/>
                </mxCell>
                <mxCell id="133" value="" style="endArrow=none;dashed=1;html=1;exitX=1;exitY=0.5;exitDx=0;exitDy=0;entryX=0;entryY=0.5;entryDx=0;entryDy=0;strokeColor=#000000;" parent="1" source="104" target="132" edge="1">
                    <mxGeometry width="50" height="50" relative="1" as="geometry">
                        <mxPoint x="300" y="1646" as="sourcePoint"/>
                        <mxPoint x="345.5" y="1751" as="targetPoint"/>
                    </mxGeometry>
                </mxCell>
                <mxCell id="135" value="" style="endArrow=none;dashed=1;html=1;exitX=1;exitY=0.5;exitDx=0;exitDy=0;entryX=0;entryY=0.5;entryDx=0;entryDy=0;strokeColor=#000000;" parent="1" source="132" target="109" edge="1">
                    <mxGeometry width="50" height="50" relative="1" as="geometry">
                        <mxPoint x="490" y="1656" as="sourcePoint"/>
                        <mxPoint x="595" y="1656" as="targetPoint"/>
                    </mxGeometry>
                </mxCell>
                <mxCell id="136" value="" style="endArrow=none;dashed=1;html=1;exitX=1;exitY=0.5;exitDx=0;exitDy=0;entryX=0;entryY=0.5;entryDx=0;entryDy=0;strokeColor=#000000;" parent="1" source="132" target="122" edge="1">
                    <mxGeometry width="50" height="50" relative="1" as="geometry">
                        <mxPoint x="285" y="1731" as="sourcePoint"/>
                        <mxPoint x="390" y="1731" as="targetPoint"/>
                    </mxGeometry>
                </mxCell>
                <mxCell id="137" value="" style="endArrow=none;dashed=1;html=1;exitX=1;exitY=0.5;exitDx=0;exitDy=0;entryX=0;entryY=0.5;entryDx=0;entryDy=0;strokeColor=#000000;" parent="1" source="132" target="125" edge="1">
                    <mxGeometry width="50" height="50" relative="1" as="geometry">
                        <mxPoint x="295" y="1741" as="sourcePoint"/>
                        <mxPoint x="400" y="1741" as="targetPoint"/>
                    </mxGeometry>
                </mxCell>
            </root>
        </mxGraphModel>
    </diagram>
</mxfile>